<svg width="30" height="30" viewBox="0 0 30 30" fill="none" xmlns="http://www.w3.org/2000/svg">
<path d="M18.1729 17.3174C18.174 19.4373 14.5441 19.1959 13.3875 19.1971V15.4389C14.5453 15.4389 18.1729 15.1066 18.1729 17.3174ZM30 15C30 23.284 23.284 30 15 30C6.71602 30 0 23.284 0 15C0 6.71602 6.71602 0 15 0C23.284 0 30 6.71543 30 15ZM19.0975 14.124C20.0871 13.6201 20.7059 12.7318 20.5611 11.2529C20.3666 9.23086 18.6217 8.55352 16.418 8.36016V5.55586H14.7111V8.28633C14.2623 8.28633 13.8035 8.29512 13.3482 8.30449V5.55586H11.6426V8.35957C11.2723 8.36719 10.9096 8.37422 10.5557 8.37422V8.36543L8.20078 8.36484V10.1883C8.20078 10.1883 9.46172 10.1643 9.44062 10.1877C10.132 10.1877 10.357 10.5891 10.4227 10.9359V14.1311C10.4707 14.1311 10.5328 14.1334 10.6031 14.1428C10.5463 14.1428 10.4854 14.1428 10.4227 14.1428V18.6182C10.3916 18.8355 10.2639 19.183 9.78105 19.1836C9.80273 19.2029 8.54004 19.1836 8.54004 19.1836L8.20078 21.2221H10.4221C10.8357 21.2221 11.2424 21.2297 11.6414 21.232V24.0686H13.3471V21.2619C13.8152 21.2719 14.2682 21.2754 14.7105 21.2748V24.0686H16.4168V21.2373C19.2873 21.0727 21.2959 20.3496 21.5455 17.6549C21.7471 15.4846 20.7258 14.5166 19.0969 14.1252L19.0975 14.124ZM17.3789 12.0152C17.3789 10.0037 14.3514 10.3102 13.3881 10.3102V13.7186C14.3514 13.7186 17.3783 13.9436 17.3789 12.0152Z" fill="url(#paint0_linear_45_1304)"/>
<defs>
<linearGradient id="paint0_linear_45_1304" x1="4.39336" y1="4.39336" x2="25.6066" y2="25.6066" gradientUnits="userSpaceOnUse">
<stop stop-color="#FDE560"/>
<stop offset="1" stop-color="#FF6F00"/>
</linearGradient>
</defs>
</svg>
