<svg width="32" height="32" viewBox="0 0 32 32" fill="none" xmlns="http://www.w3.org/2000/svg">
<g clip-path="url(#clip0_400_4980)">
<path fill-rule="evenodd" clip-rule="evenodd" d="M16 0C7.175 0 0 7.175 0 16C0 24.825 7.175 32 16 32C24.825 32 32 24.825 32 16C32 7.175 24.825 0 16 0Z" fill="white"/>
<path fill-rule="evenodd" clip-rule="evenodd" d="M23.7375 10.6063C24.125 10.9938 24.125 11.6313 23.7375 12.0188L14.3625 21.3939C14.1688 21.5876 13.9125 21.6876 13.6563 21.6876C13.4 21.6876 13.1438 21.5876 12.95 21.3939L8.26255 16.7063C7.87505 16.3188 7.87505 15.6813 8.26255 15.2938C8.65005 14.9063 9.28755 14.9063 9.67505 15.2938L13.6563 19.2751L22.325 10.6063C22.7125 10.2126 23.35 10.2126 23.7375 10.6063Z" fill="#5B23E4"/>
</g>
<defs>
<clipPath id="clip0_400_4980">
<rect width="32" height="32" fill="white"/>
</clipPath>
</defs>
</svg>
