<svg width="18" height="18" viewBox="0 0 18 18" fill="none" xmlns="http://www.w3.org/2000/svg">
<path d="M9.68847 12.4426L6.93439 15.1967C6.93439 15.1967 6.93439 15.1968 6.93432 15.1968C6.93432 15.1968 6.93432 15.1968 6.93426 15.1968C5.79536 16.3358 3.94212 16.3359 2.8031 15.1968C2.25131 14.6451 1.9475 13.9114 1.9475 13.1312C1.9475 12.351 2.25131 11.6175 2.8029 11.0658C2.80297 11.0657 2.80303 11.0656 2.8031 11.0656L5.55718 8.31141C5.9374 7.93113 5.9374 7.31455 5.55712 6.93433C5.1769 6.55412 4.56032 6.55412 4.18004 6.93433L1.42596 9.68848C1.42576 9.68868 1.42557 9.68894 1.42537 9.68913C0.506219 10.6086 0 11.8311 0 13.1312C0 14.4317 0.506414 15.6543 1.42602 16.5739C2.37523 17.5231 3.62195 17.9977 4.86874 17.9977C6.11553 17.9977 7.36232 17.5231 8.3114 16.5739C8.31146 16.5739 8.31146 16.5738 8.31146 16.5738L11.0655 13.8196C11.4458 13.4394 11.4458 12.8228 11.0655 12.4426C10.6853 12.0624 10.0688 12.0624 9.68847 12.4426Z" fill="white"/>
<path d="M17.9994 4.86873C17.9994 3.56826 17.4929 2.34562 16.5733 1.42601C14.6749 -0.472277 11.5862 -0.472212 9.68793 1.42601C9.68786 1.42614 9.68773 1.42621 9.68767 1.42634L6.93365 4.18029C6.55337 4.56051 6.55337 5.17715 6.93365 5.55737C7.12385 5.74757 7.373 5.84261 7.62222 5.84261C7.87137 5.84261 8.12065 5.74751 8.31072 5.55737L11.0647 2.80341C11.0648 2.80328 11.0649 2.80322 11.0651 2.80309C12.204 1.66419 14.0572 1.66413 15.1962 2.80309C15.748 3.35488 16.0519 4.0885 16.0519 4.86873C16.0519 5.6489 15.7481 6.38239 15.1964 6.93418L15.1962 6.93438L12.4421 9.68853C12.0619 10.0687 12.0619 10.6853 12.4422 11.0656C12.6323 11.2557 12.8816 11.3508 13.1307 11.3508C13.3799 11.3508 13.6291 11.2557 13.8193 11.0656L16.5734 8.31145C16.5736 8.31126 16.5738 8.311 16.574 8.3108C17.4931 7.39132 17.9994 6.16888 17.9994 4.86873Z" fill="white"/>
<path d="M5.5567 12.4426C5.74684 12.6328 5.99605 12.7279 6.2452 12.7279C6.49441 12.7279 6.74363 12.6328 6.93377 12.4426L12.4421 6.93433C12.8224 6.55412 12.8224 5.93754 12.4421 5.55726C12.0619 5.17704 11.4453 5.17704 11.065 5.55726L5.5567 11.0655C5.17641 11.4458 5.17641 12.0624 5.5567 12.4426Z" fill="white"/>
</svg>
