<svg width="63" height="30" viewBox="0 0 63 30" fill="none" xmlns="http://www.w3.org/2000/svg">
<path d="M62.4142 16.4142C63.1953 15.6332 63.1953 14.3668 62.4142 13.5858L49.6863 0.857869C48.9052 0.0768199 47.6389 0.0768198 46.8579 0.857868C46.0768 1.63892 46.0768 2.90525 46.8579 3.6863L58.1716 15L46.8579 26.3137C46.0768 27.0948 46.0768 28.3611 46.8579 29.1421C47.6389 29.9232 48.9052 29.9232 49.6863 29.1421L62.4142 16.4142ZM-1.74846e-07 17L61 17L61 13L1.74846e-07 13L-1.74846e-07 17Z" fill="white"/>
<path d="M62.4142 16.4142C63.1953 15.6332 63.1953 14.3668 62.4142 13.5858L49.6863 0.857869C48.9052 0.0768199 47.6389 0.0768198 46.8579 0.857868C46.0768 1.63892 46.0768 2.90525 46.8579 3.6863L58.1716 15L46.8579 26.3137C46.0768 27.0948 46.0768 28.3611 46.8579 29.1421C47.6389 29.9232 48.9052 29.9232 49.6863 29.1421L62.4142 16.4142ZM-1.74846e-07 17L61 17L61 13L1.74846e-07 13L-1.74846e-07 17Z" fill="url(#paint0_linear_90_4152)"/>
<defs>
<linearGradient id="paint0_linear_90_4152" x1="2.0678" y1="16" x2="4.18967" y2="2.7732" gradientUnits="userSpaceOnUse">
<stop stop-color="#7817FF"/>
<stop offset="1" stop-color="#48B5F5"/>
</linearGradient>
</defs>
</svg>
