<svg width="37" height="40" viewBox="0 0 37 40" fill="none" xmlns="http://www.w3.org/2000/svg">
<path d="M14.8 32.0667V39.4667L22.2 32.0667H28.3667C30.6564 32.0667 32.8523 31.1571 34.4714 29.538C36.0904 27.919 37 25.723 37 23.4333V8.63333C37 6.34363 36.0904 4.14771 34.4714 2.52864C32.8523 0.909581 30.6564 0 28.3667 0H8.63333C6.34363 0 4.14771 0.909581 2.52865 2.52864C0.909581 4.14771 0 6.34363 0 8.63333V23.4333C0 25.723 0.909581 27.919 2.52865 29.538C4.14771 31.1571 6.34363 32.0667 8.63333 32.0667H14.8ZM15.7003 12.0003L18.5863 6.79567L21.4723 12.0003L27.306 13.135L23.2607 17.4887L23.976 23.4333L18.5863 20.9667L13.1967 23.4333L13.912 17.5257L9.86667 13.135L15.7003 12.0003Z" fill="#00C5FF"/>
</svg>
