<svg width="24" height="20" viewBox="0 0 24 20" fill="none" xmlns="http://www.w3.org/2000/svg">
<path d="M23.7888 17.3075L13.2592 1.30036C12.9931 0.895808 12.5153 0.648438 11.9999 0.648438C11.4846 0.648438 11.0068 0.895765 10.7406 1.30036L0.211216 17.3075C-0.0626273 17.7238 -0.0707367 18.2431 0.190076 18.6664C0.450888 19.0897 0.940122 19.3514 1.47047 19.3514H22.5295C23.0598 19.3514 23.549 19.0896 23.8099 18.6664C24.0707 18.243 24.0626 17.7238 23.7888 17.3075ZM12.0078 6.18548C12.6126 6.18548 13.1242 6.4982 13.1242 7.0525C13.1242 8.74388 12.9072 11.1744 12.9072 12.8658C12.9072 13.3065 12.38 13.4912 12.0078 13.4912C11.5117 13.4912 11.093 13.3064 11.093 12.8658C11.093 11.1744 10.876 8.74388 10.876 7.0525C10.876 6.4982 11.3721 6.18548 12.0078 6.18548ZM12.0233 16.6609C11.3411 16.6609 10.8294 16.1492 10.8294 15.5665C10.8294 14.9695 11.3411 14.472 12.0233 14.472C12.6591 14.472 13.2018 14.9695 13.2018 15.5665C13.2018 16.1492 12.6591 16.6609 12.0233 16.6609Z" fill="#FF0000"/>
</svg>
